<svg id="Layer_1" data-name="Layer 1" xmlns="http://www.w3.org/2000/svg" viewBox="0 0 80 80"><defs><style>.cls-1{fill:#7d4ac7;}</style></defs><title>aml research icons</title><path class="cls-1" d="M65.2,41.21a1,1,0,0,0-1.07-.59,4.74,4.74,0,0,1-.55,0c-2.72,0-6.29-2.77-9.15-5-.93-.72-1.8-1.4-2.61-2a9,9,0,0,0-11.51.73,9,9,0,0,0-11.5-.72c-.8.55-1.68,1.23-2.6,1.95-2.87,2.23-6.44,5-9.18,5a4.91,4.91,0,0,1-.55,0,1,1,0,0,0-.76,1.77,10.87,10.87,0,0,0,3.66,1.91c.48.48,1,1.13,1.65,1.88C24.44,50.24,30.14,57,40.31,57s15.87-6.79,19.28-10.85c.63-.75,1.19-1.41,1.66-1.9a10.8,10.8,0,0,0,3.65-1.9A1,1,0,0,0,65.2,41.21Zm-37.77-4c.91-.7,1.76-1.37,2.51-1.89A7.4,7.4,0,0,1,34.13,34,7.77,7.77,0,0,1,39.6,36.5a1,1,0,0,0,1.41,0A7.83,7.83,0,0,1,46.5,34a7.4,7.4,0,0,1,4.19,1.38c.75.52,1.61,1.19,2.51,1.89,2.51,1.95,5.27,4.09,8,5a11.35,11.35,0,0,1-3.84.59,36,36,0,0,1-4.41-.36,41,41,0,0,0-4.73-.38,12.41,12.41,0,0,0-7.87,2.47,12.38,12.38,0,0,0-7.86-2.47,38.85,38.85,0,0,0-4.73.38,36,36,0,0,1-4.41.36,11.31,11.31,0,0,1-3.84-.59C22.16,41.33,24.93,39.18,27.43,37.24Zm30.63,7.67c-3.4,4-8.52,10.14-17.75,10.14S26,48.94,22.56,44.9l-.08-.1.83,0A39.93,39.93,0,0,0,28,44.45a37.92,37.92,0,0,1,4.49-.37,10.23,10.23,0,0,1,7.2,2.51,1,1,0,0,0,1.31,0,10.28,10.28,0,0,1,7.22-2.51,37.92,37.92,0,0,1,4.49.37,39.93,39.93,0,0,0,4.65.37h0l.83,0Z"/><path class="cls-1" d="M40.31,57.29c-10.28,0-16-6.85-19.47-10.95-.58-.69-1.13-1.34-1.59-1.82a11.16,11.16,0,0,1-3.69-1.93,1.25,1.25,0,0,1,1-2.22,2.92,2.92,0,0,0,.51,0c2.66,0,6.19-2.74,9-4.95.94-.72,1.81-1.4,2.62-2a9.24,9.24,0,0,1,11.64.6A9.25,9.25,0,0,1,52,33.5c.81.56,1.68,1.23,2.6,2,2.86,2.22,6.38,5,9,5a2.78,2.78,0,0,0,.51,0,1.25,1.25,0,0,1,1,2.22,11.08,11.08,0,0,1-3.66,1.92c-.47.48-1,1.15-1.61,1.85C56.34,50.45,50.58,57.29,40.31,57.29Zm-24-16.43a.74.74,0,0,0-.69.45.73.73,0,0,0,.22.88,10.46,10.46,0,0,0,3.59,1.87h.06l0,0c.49.5,1.06,1.18,1.66,1.9,3.38,4,9,10.77,19.09,10.77S56,50.06,59.39,46c.62-.73,1.2-1.41,1.68-1.91l0,0,.06,0a10.47,10.47,0,0,0,3.56-1.86.75.75,0,0,0,.23-.88h0a.75.75,0,0,0-.8-.44,5.47,5.47,0,0,1-.59,0c-2.81,0-6.41-2.8-9.3-5-.94-.73-1.81-1.4-2.6-2a8.78,8.78,0,0,0-11.21.71l-.16.14-.16-.14A8.77,8.77,0,0,0,29,33.91c-.79.55-1.66,1.23-2.58,1.94-2.91,2.26-6.51,5.06-9.34,5.06a5.28,5.28,0,0,1-.58,0Zm24,14.44c-9.35,0-14.52-6.17-17.94-10.24l-.46-.54.58,0a34.59,34.59,0,0,0,5.44-.35,38.25,38.25,0,0,1,4.52-.37,10.5,10.5,0,0,1,7.37,2.57.77.77,0,0,0,1,0,10.53,10.53,0,0,1,7.38-2.57,38.25,38.25,0,0,1,4.52.37,34.66,34.66,0,0,0,5.44.35l.57,0-.42.5L58.16,45v0l.09.07C54.83,49.14,49.65,55.3,40.31,55.3ZM23,45.07c3.36,4,8.41,9.73,17.28,9.73s13.92-5.74,17.29-9.73a35.77,35.77,0,0,1-5-.38,37.57,37.57,0,0,0-4.46-.36,10.1,10.1,0,0,0-7.06,2.45,1.28,1.28,0,0,1-1.63,0,10,10,0,0,0-7-2.45,37.57,37.57,0,0,0-4.46.36A35.77,35.77,0,0,1,23,45.07Zm17.28-.21-.15-.11a12.1,12.1,0,0,0-7.71-2.42,38.35,38.35,0,0,0-4.69.38,37,37,0,0,1-4.45.36,11.5,11.5,0,0,1-3.93-.61l-.68-.24.69-.23c2.65-.88,5.44-3,7.89-5h0c.86-.67,1.75-1.36,2.52-1.89a7.67,7.67,0,0,1,4.33-1.43,8.05,8.05,0,0,1,5.65,2.6.74.74,0,0,0,1,0,8.11,8.11,0,0,1,5.67-2.6,7.71,7.71,0,0,1,4.33,1.42c.77.54,1.62,1.2,2.53,1.9,2.45,1.91,5.23,4.07,7.87,5l.69.23-.68.24a11.44,11.44,0,0,1-3.92.61,36.34,36.34,0,0,1-4.44-.36,38.68,38.68,0,0,0-4.7-.38,12.11,12.11,0,0,0-7.72,2.42Zm-7.86-3a12.61,12.61,0,0,1,7.86,2.41,12.62,12.62,0,0,1,7.87-2.41,41.3,41.3,0,0,1,4.75.38,35.87,35.87,0,0,0,4.39.36,12,12,0,0,0,3.06-.36,33.7,33.7,0,0,1-7.33-4.77c-.9-.7-1.75-1.36-2.51-1.89a7.19,7.19,0,0,0-4-1.33,7.58,7.58,0,0,0-5.31,2.46,1.27,1.27,0,0,1-1.77,0,7.5,7.5,0,0,0-5.29-2.46,7.18,7.18,0,0,0-4.05,1.34c-.75.52-1.64,1.21-2.49,1.87h0a33.87,33.87,0,0,1-7.35,4.78,12,12,0,0,0,3.07.36,37.56,37.56,0,0,0,4.37-.35A39.84,39.84,0,0,1,32.45,41.83Z"/><path class="cls-1" d="M57.24,32.73a.91.91,0,0,1-.89-.67c-.51-1.8-1-2.38-2.66-2.94a.94.94,0,0,1-.62-.88.92.92,0,0,1,.62-.88c.28-.1.52-.2.74-.3,1-.49,1.48-1.11,1.92-2.65a.93.93,0,0,1,1.78,0c.51,1.8,1,2.38,2.66,2.95a.92.92,0,0,1,.62.88.94.94,0,0,1-.62.88h0a3.46,3.46,0,0,0-2,1.34,5.5,5.5,0,0,0-.66,1.6A.91.91,0,0,1,57.24,32.73Zm3.35-4.18Z"/><path class="cls-1" d="M48.28,25.26h0a.82.82,0,0,1-.79-.59,2.11,2.11,0,0,0-1.64-1.82.84.84,0,0,1-.54-.78.81.81,0,0,1,.54-.77,2.14,2.14,0,0,0,1.64-1.82.81.81,0,0,1,.79-.6.8.8,0,0,1,.78.6A2.15,2.15,0,0,0,50.7,21.3h0a.81.81,0,0,1,.55.77.83.83,0,0,1-.55.78,2.13,2.13,0,0,0-1.64,1.82A.8.8,0,0,1,48.28,25.26Zm2-2.83Z"/></svg>