<svg id="Layer_1" data-name="Layer 1" xmlns="http://www.w3.org/2000/svg" viewBox="0 0 80 80"><defs><style>.cls-1{fill:#fff;fill-rule:evenodd;}</style></defs><title>aml research icons</title><path class="cls-1" d="M42.39,58.52l21.82,6.54c.52.19.54-.07.54-.57V16c0-.43-.15-.42-.57-.31l-21.79,3.9H16.49a1,1,0,0,0-.71.3h0a1.06,1.06,0,0,0-.29.73V57.48a1,1,0,0,0,.29.73h0a1,1,0,0,0,.71.3ZM22.94,45v-.73l3.31-3.93,0,0a3.12,3.12,0,0,0,.92-1.68,1,1,0,0,0-.33-.79,1.15,1.15,0,0,0-.84-.31,1.2,1.2,0,0,0-.81.3,1.47,1.47,0,0,0-.45.83L23,37.8a3.37,3.37,0,0,1,1.22-1.6,3.29,3.29,0,0,1,1.92-.57,3.12,3.12,0,0,1,2.22.83,2.68,2.68,0,0,1,.9,2.06,3.53,3.53,0,0,1-.41,1.57,7.75,7.75,0,0,1-1.25,1.74l-1.2,1.32H29.7L29.39,45Zm10.4-16.27a11.23,11.23,0,0,1,7.09-2.5h0a11.21,11.21,0,0,1,7.09,2.5l1.25-1.24,1.1,4.77-4.81-1.09L46.23,30a9.44,9.44,0,0,0-5.79-2h0a9.44,9.44,0,0,0-5.79,2l1.16,1.15L31,32.27,32.1,27.5l1.24,1.24ZM53.06,44.11l.48.07a2.19,2.19,0,0,0,2.23-.78,4.87,4.87,0,0,0,.8-3,5.1,5.1,0,0,0-.8-3.09,2.32,2.32,0,0,0-2.23-.91l-.48,0v7.71Zm-2.14,2.38V33.93l2.41-.46a3.79,3.79,0,0,1,4,1.3,6.21,6.21,0,0,1,1.08,2.36,13.49,13.49,0,0,1,.36,3.28,11.46,11.46,0,0,1-.57,3.86,5,5,0,0,1-1.67,2.44,2.73,2.73,0,0,1-1.37.55,5.45,5.45,0,0,1-1.82-.19l-2.41-.58ZM44.77,42a6.54,6.54,0,0,0,1,.85,2.32,2.32,0,0,0,.88.39,1,1,0,0,0,.85-.2,1.14,1.14,0,0,0,.33-.88,1.22,1.22,0,0,0-.45-1,2.36,2.36,0,0,0-1.31-.4h-.23V39.06a2.81,2.81,0,0,0,1.46-.43,1.24,1.24,0,0,0,.48-1.05,1.09,1.09,0,0,0-.25-.75.66.66,0,0,0-.63-.21,1.46,1.46,0,0,0-.74.35,6.29,6.29,0,0,0-.87.86c-.36-.4-.73-.78-1.09-1.16a6.33,6.33,0,0,1,1.29-1.44A3.75,3.75,0,0,1,47,34.48a1.92,1.92,0,0,1,1.91.54,3.19,3.19,0,0,1,.77,2.29,3.75,3.75,0,0,1-.27,1.45,2.43,2.43,0,0,1-.75,1,2.47,2.47,0,0,1,.89,1.14,4.59,4.59,0,0,1,.31,1.75A3.39,3.39,0,0,1,49,45.22a2.21,2.21,0,0,1-2.24.41,5.33,5.33,0,0,1-1.6-.77,7.74,7.74,0,0,1-1.44-1.25c.35-.51.69-1,1-1.57ZM42.08,56.15,62,61.93c.47.17.49-.06.49-.5V18.54c0-.38-.14-.37-.52-.28L42.08,21.72H18.47a1,1,0,0,0-.65.26h0a.91.91,0,0,0-.27.65V55.24a.88.88,0,0,0,.27.64h0a1,1,0,0,0,.65.26Zm-8.7-13.09v-5.2h.48a3.3,3.3,0,0,1,2.24.7,2.65,2.65,0,0,1,0,3.81,3.35,3.35,0,0,1-2.24.69ZM31.21,45V35.92h2.44a6.09,6.09,0,0,1,4,1.22,4.11,4.11,0,0,1,1.46,3.33,4.43,4.43,0,0,1-.58,2.25,4.38,4.38,0,0,1-1.69,1.61,4.63,4.63,0,0,1-1.37.52,8.73,8.73,0,0,1-1.84.16Z"/></svg>