<svg id="Layer_1" data-name="Layer 1" xmlns="http://www.w3.org/2000/svg" viewBox="0 0 80 80"><defs><style>.cls-1{fill:none;stroke:#7d4ac7;stroke-miterlimit:10;stroke-width:2px;}</style></defs><title>aml research icons</title><path class="cls-1" d="M58.34,21.24a1.14,1.14,0,0,1,1.14,1.14V30.5a3.39,3.39,0,0,0,.76,2l4.93,5.41a1.29,1.29,0,0,1,0,1.68l-4.94,5.52a3.45,3.45,0,0,0-.75,2v7.5a1.14,1.14,0,0,1-1.14,1.14H49.26a2.77,2.77,0,0,0-1.87.86L41.7,63.14a.94.94,0,0,1-1.47,0l-5.55-6.56a2.79,2.79,0,0,0-1.86-.86H24a1.14,1.14,0,0,1-1.14-1.14v-7.5a2.93,2.93,0,0,0-.83-1.9l-6.21-5.68a1,1,0,0,1,0-1.52L22,32.4a2.94,2.94,0,0,0,.84-1.9V22.38A1.14,1.14,0,0,1,24,21.24h8.79a3.15,3.15,0,0,0,1.93-.8L40.21,15a1.13,1.13,0,0,1,1.6,0l5.55,5.5a3.14,3.14,0,0,0,1.93.79Z"/><path class="cls-1" d="M30.87,29.81a1.14,1.14,0,0,0-1.13,1.13v16A1.14,1.14,0,0,0,30.87,48h3.9a1.14,1.14,0,0,0,1.14-1.13v-7.7c0-.62.28-.71.62-.19l3.25,4.9a.69.69,0,0,0,1.24,0l3.15-5c.33-.53.6-.45.6.17v8.12a1.14,1.14,0,0,0,1.14,1.13h4.18a1.14,1.14,0,0,0,1.13-1.13V30.94a1.14,1.14,0,0,0-1.13-1.13h-5a2.22,2.22,0,0,0-1.72,1L41,34.6a.64.64,0,0,1-1.19,0l-2.4-3.84a2.28,2.28,0,0,0-1.74-1h-4.8"/></svg>