<svg id="Layer_1" data-name="Layer 1" xmlns="http://www.w3.org/2000/svg" viewBox="0 0 80 80"><defs><style>.cls-1{fill:#7d4ac7;}</style></defs><title>aml research icons</title><path class="cls-1" d="M32.82,38.31a5.11,5.11,0,0,1-3.05,1.23,4.52,4.52,0,0,1-2.85-.76,4.27,4.27,0,0,1-.63-.57L25,39.29a5.57,5.57,0,0,0,.92.83,6.18,6.18,0,0,0,3.9,1.07,6.79,6.79,0,0,0,4-1.63,7.53,7.53,0,0,0,1.16-1.28l-1.35-1A5.69,5.69,0,0,1,32.82,38.31Z"/><path class="cls-1" d="M29.49,41.45a6.35,6.35,0,0,1-3.67-1.12,5.43,5.43,0,0,1-1-.88l-.16-.19,1.63-1.41.16.19a3,3,0,0,0,.59.53,4.19,4.19,0,0,0,2.68.72,4.82,4.82,0,0,0,2.9-1.17h0a5.14,5.14,0,0,0,.86-.94l.14-.21,1.76,1.25-.15.21a7.54,7.54,0,0,1-1.2,1.32,7.07,7.07,0,0,1-4.19,1.69ZM25.4,39.31a4.65,4.65,0,0,0,.71.61,5.93,5.93,0,0,0,3.73,1,6.61,6.61,0,0,0,3.9-1.57,7.3,7.3,0,0,0,1-1l-.94-.67a6.2,6.2,0,0,1-.79.83,5.34,5.34,0,0,1-3.2,1.29,4.77,4.77,0,0,1-3-.81,4.15,4.15,0,0,1-.51-.43Z"/><path class="cls-1" d="M47.32,32.81a4.51,4.51,0,1,0-4.51-4.51A4.51,4.51,0,0,0,47.32,32.81Zm0-7.36a2.86,2.86,0,1,1-2.85,2.85A2.86,2.86,0,0,1,47.32,25.45Z"/><path class="cls-1" d="M47.32,33.06a4.76,4.76,0,1,1,4.76-4.76A4.76,4.76,0,0,1,47.32,33.06Zm0-9a4.26,4.26,0,1,0,4.26,4.26A4.26,4.26,0,0,0,47.32,24Zm0,7.37a3.11,3.11,0,1,1,3.11-3.11A3.11,3.11,0,0,1,47.32,31.41Zm0-5.71a2.61,2.61,0,1,0,2.61,2.6A2.61,2.61,0,0,0,47.32,25.7Z"/><path class="cls-1" d="M24.83,35.64a7.47,7.47,0,0,1,4.43-2.24,8.87,8.87,0,0,1,5.26.88l.76-1.46A10.49,10.49,0,0,0,29,31.76a9.13,9.13,0,0,0-5.4,2.74Z"/><path class="cls-1" d="M24.84,36l-1.56-1.48.17-.18A9.35,9.35,0,0,1,29,31.51a10.71,10.71,0,0,1,6.4,1.09l.22.12-1,1.9-.22-.11a8.63,8.63,0,0,0-5.1-.87A7.23,7.23,0,0,0,25,35.81ZM24,34.49l.84.8a7.67,7.67,0,0,1,4.4-2.14,9,9,0,0,1,5.18.8l.53-1A10.3,10.3,0,0,0,29.07,32,8.84,8.84,0,0,0,24,34.49Z"/><path class="cls-1" d="M61.79,27a8.26,8.26,0,0,0-4.11-2.66V15H38.22a20.11,20.11,0,0,0-10.17,2.65,15.82,15.82,0,0,0-6.53,7.21,22.56,22.56,0,0,0-1.92,7.93,32.39,32.39,0,0,0,.31,6.71,3,3,0,0,0-2.25,2.17,7,7,0,0,0-.15,3.06A13,13,0,0,0,18.45,48c1.08,2.5,2.89,4.64,4.81,4.82a28.26,28.26,0,0,0,1.4,2.87,23.59,23.59,0,0,0,2,3,19.1,19.1,0,0,0,5.41,4.91,12.14,12.14,0,0,0,6.24,1.69h8.34V53.91h11V40.21A8.22,8.22,0,0,0,61.79,27ZM37.39,56a4.51,4.51,0,0,1-1.18-.42,6.4,6.4,0,0,1-1.36-1,3.12,3.12,0,0,1,2-.3l.52.13Zm0-7.91c-.19-.08-.39-.17-.58-.27a4.66,4.66,0,0,0-3.16-.6L34,48.84a3.34,3.34,0,0,1,2.11.48,7.52,7.52,0,0,0,1.29.51v2.88l-.1,0a5.08,5.08,0,0,0-3.62.61,5.19,5.19,0,0,1-2,.62v1.65a5.21,5.21,0,0,0,1.57-.29A7.73,7.73,0,0,0,35.45,57a6.15,6.15,0,0,0,1.94.64v5.9a10.67,10.67,0,0,1-4.49-1.43A17.53,17.53,0,0,1,28,57.66a22.2,22.2,0,0,1-1.86-2.82,25.4,25.4,0,0,1-1.51-3.2L24.34,51l-.65.1c-1.31.21-2.78-1.64-3.72-3.81a11.53,11.53,0,0,1-.82-2.86,5.18,5.18,0,0,1,.09-2.32A1.5,1.5,0,0,1,20.84,41l1,0-.16-1a32.39,32.39,0,0,1-.42-7.21A21.18,21.18,0,0,1,23,25.5,14.19,14.19,0,0,1,28.88,19a18.24,18.24,0,0,1,8.51-2.4ZM39,39.43h9.53a2,2,0,0,1,0,4H39Zm6,24.18H39v-9.7h6ZM56,52.25H39V45.08h9.53a3.66,3.66,0,0,0,0-7.31H39V16.62H56Zm4.5-15.76a6.56,6.56,0,0,1-2.84,2V26.11A6.53,6.53,0,0,1,62,32.29,6.56,6.56,0,0,1,60.52,36.49Z"/><path class="cls-1" d="M46.9,65.52H38.31A12.5,12.5,0,0,1,32,63.8a19.56,19.56,0,0,1-5.49-5,24.91,24.91,0,0,1-2-3.06A26.16,26.16,0,0,1,23.09,53c-2.15-.3-3.92-2.74-4.87-5a13.31,13.31,0,0,1-1-3.33,7.26,7.26,0,0,1,.16-3.17,3.27,3.27,0,0,1,2.21-2.28,32,32,0,0,1-.28-6.53,22.93,22.93,0,0,1,1.94-8,16.13,16.13,0,0,1,6.63-7.32,20.28,20.28,0,0,1,10.3-2.69H57.93v9.48a8.48,8.48,0,0,1,4,2.69h0a8.47,8.47,0,0,1-4,13.52V54.16h-11ZM38.22,15.21a19.84,19.84,0,0,0-10,2.62,15.68,15.68,0,0,0-6.43,7.09,22.67,22.67,0,0,0-1.89,7.85,31.86,31.86,0,0,0,.3,6.65l0,.23L20,39.7a2.75,2.75,0,0,0-2.06,2,6.52,6.52,0,0,0-.14,2.94,12.58,12.58,0,0,0,.92,3.21c1.15,2.68,3,4.52,4.61,4.67l.15,0,0,.13a27.82,27.82,0,0,0,1.38,2.85,25,25,0,0,0,2,3,19,19,0,0,0,5.34,4.85A12,12,0,0,0,38.31,65H46.4V53.66h11V40l.18-.05a8,8,0,0,0,0-15.35l-.18-.05V15.21H38.22Zm7,48.65H38.79V53.66h6.45Zm-6-.5h5.45v-9.2H39.29Zm-1.65.49-.27,0a11,11,0,0,1-4.6-1.46,17.69,17.69,0,0,1-5-4.56A23.47,23.47,0,0,1,25.88,55a25.24,25.24,0,0,1-1.53-3.23l-.17-.43-.45.07c-1.6.25-3.14-2-4-4a11.66,11.66,0,0,1-.84-2.92,5.45,5.45,0,0,1,.1-2.43,1.75,1.75,0,0,1,1.84-1.29l.69,0-.11-.68A31.93,31.93,0,0,1,21,32.84a21.34,21.34,0,0,1,1.8-7.44,14.56,14.56,0,0,1,5.95-6.58,18.66,18.66,0,0,1,8.63-2.43h.26V48.46l-.35-.14-.59-.27A4.59,4.59,0,0,0,34,47.42l.24,1.14a3.93,3.93,0,0,1,2,.53,7,7,0,0,0,1.24.5l.19,0V53l-.41-.11a4.84,4.84,0,0,0-3.45.6,6.29,6.29,0,0,1-1.88.62V55.3A5,5,0,0,0,33.15,55L33.3,55l.11.12a7.69,7.69,0,0,0,2.16,1.72,5.75,5.75,0,0,0,1.85.61l.22,0ZM24.5,50.75l.32.8a24.94,24.94,0,0,0,1.5,3.17,21.6,21.6,0,0,0,1.84,2.78A17.31,17.31,0,0,0,33,61.94a10.5,10.5,0,0,0,4.12,1.36V57.89a6.2,6.2,0,0,1-1.81-.63,8.21,8.21,0,0,1-2.18-1.7,5.34,5.34,0,0,1-1.49.25h-.25V53.66h.25a5.2,5.2,0,0,0,1.92-.6,5.43,5.43,0,0,1,3.57-.67V50A7.33,7.33,0,0,1,36,49.54a3.1,3.1,0,0,0-2-.45l-.24,0L33.35,47,33.6,47a4.82,4.82,0,0,1,3.31.62l.23.1V16.9A18,18,0,0,0,29,19.25a14.08,14.08,0,0,0-5.76,6.35,21.08,21.08,0,0,0-1.75,7.27A31,31,0,0,0,21.92,40l.2,1.27-1.29,0a1.28,1.28,0,0,0-1.36.94,5.23,5.23,0,0,0-.08,2.21,11.37,11.37,0,0,0,.81,2.79c1,2.36,2.41,3.83,3.45,3.67Zm13.14,5.56-.3-.06a4.74,4.74,0,0,1-1.24-.45,6.22,6.22,0,0,1-1.42-1l-.27-.27.35-.14A3.3,3.3,0,0,1,36.94,54l.5.13.2,0Zm-2.32-1.65a5.09,5.09,0,0,0,1,.7,4.71,4.71,0,0,0,.81.32V54.61l-.33-.09A2.53,2.53,0,0,0,35.32,54.66Zm21-2.16H38.79V44.83h9.78a3.41,3.41,0,0,0,0-6.81H38.79V16.37H56.27Zm-17-.5H55.77V16.87H39.29V37.52h9.28a3.91,3.91,0,0,1,0,7.81H39.29Zm9.28-8.32H38.79v-4.5h9.78a2.25,2.25,0,0,1,0,4.5Zm-9.28-.5h9.28a1.75,1.75,0,0,0,0-3.5H39.29Zm18.14-4.35V25.75l.33.12a6.83,6.83,0,0,1,3,10.78h0a6.82,6.82,0,0,1-3,2.07Zm.5-12.36V38.11a6.37,6.37,0,0,0,2.4-1.78h0a6.34,6.34,0,0,0,0-8.07A6.39,6.39,0,0,0,57.93,26.47Z"/></svg>