<svg id="Layer_1" data-name="Layer 1" xmlns="http://www.w3.org/2000/svg" viewBox="0 0 80 80"><defs><style>.cls-1{fill:#7d4ac7;}</style></defs><title>aml research icons</title><path class="cls-1" d="M56.94,64.74H63.7a1,1,0,0,0,.69-.28,1,1,0,0,0,.28-.69v-6.7a1,1,0,0,0-2,0v5.72H56.94a1,1,0,1,0,0,1.95Z"/><path class="cls-1" d="M64.67,16.31a1,1,0,0,0-.28-.69,1,1,0,0,0-.69-.28H56.94a1,1,0,1,0,0,1.95h5.78V23a1,1,0,1,0,2,0h0Z"/><path class="cls-1" d="M16.25,24a1,1,0,0,0,1-1V17.29H23a1,1,0,0,0,0-1.95H16.25a1,1,0,0,0-.69.28,1,1,0,0,0-.29.69V23A1,1,0,0,0,16.25,24Z"/><path class="cls-1" d="M15.27,63.77a1,1,0,0,0,.29.69,1,1,0,0,0,.69.28H23a1,1,0,0,0,0-1.95H17.22V57.07a1,1,0,0,0-1.95,0h0Z"/><rect class="cls-1" x="19.33" y="45.25" width="2.26" height="2.26"/><path class="cls-1" d="M21.84,47.76H19.08V45h2.76Zm-2.26-.5h1.76V45.5H19.58Z"/><rect class="cls-1" x="19.33" y="42.99" width="2.26" height="2.26"/><path class="cls-1" d="M21.84,45.5H19.08V42.74h2.76ZM19.58,45h1.76V43.24H19.58Z"/><rect class="cls-1" x="19.33" y="40.72" width="2.26" height="2.26"/><path class="cls-1" d="M21.84,43.24H19.08V40.47h2.76Zm-2.26-.5h1.76V41H19.58Z"/><rect class="cls-1" x="19.33" y="38.46" width="2.26" height="2.26"/><path class="cls-1" d="M21.84,41H19.08V38.21h2.76Zm-2.26-.5h1.76V38.71H19.58Z"/><rect class="cls-1" x="19.33" y="36.2" width="2.26" height="2.26"/><path class="cls-1" d="M21.84,38.71H19.08V36h2.76Zm-2.26-.5h1.76V36.45H19.58Z"/><rect class="cls-1" x="19.33" y="33.93" width="2.26" height="2.26"/><path class="cls-1" d="M21.84,36.45H19.08V33.68h2.76ZM19.58,36h1.76V34.18H19.58Z"/><rect class="cls-1" x="21.59" y="49.78" width="2.26" height="2.26"/><path class="cls-1" d="M24.1,52.29H21.34V49.53H24.1Zm-2.26-.5H23.6V50H21.84Z"/><rect class="cls-1" x="21.59" y="47.51" width="2.26" height="2.26"/><path class="cls-1" d="M24.1,50H21.34V47.26H24.1Zm-2.26-.5H23.6V47.76H21.84Z"/><rect class="cls-1" x="21.59" y="31.67" width="2.26" height="2.26"/><path class="cls-1" d="M24.1,34.18H21.34V31.42H24.1Zm-2.26-.5H23.6V31.92H21.84Z"/><rect class="cls-1" x="21.59" y="29.41" width="2.26" height="2.26"/><path class="cls-1" d="M24.1,31.92H21.34V29.16H24.1Zm-2.26-.5H23.6V29.66H21.84Z"/><rect class="cls-1" x="23.85" y="52.04" width="2.26" height="2.26"/><path class="cls-1" d="M26.37,54.55H23.6V51.79h2.77Zm-2.27-.5h1.77V52.29H24.1Z"/><rect class="cls-1" x="23.85" y="27.14" width="2.26" height="2.26"/><path class="cls-1" d="M26.37,29.66H23.6V26.89h2.77Zm-2.27-.5h1.77V27.39H24.1Z"/><rect class="cls-1" x="26.12" y="54.3" width="2.26" height="2.26"/><path class="cls-1" d="M28.63,56.82H25.87V54.05h2.76Zm-2.26-.5h1.76V54.55H26.37Z"/><rect class="cls-1" x="26.12" y="24.88" width="2.26" height="2.26"/><path class="cls-1" d="M28.63,27.39H25.87V24.63h2.76Zm-2.26-.5h1.76V25.13H26.37Z"/><rect class="cls-1" x="28.38" y="56.57" width="2.26" height="2.26"/><path class="cls-1" d="M30.89,59.08H28.13V56.32h2.76Zm-2.26-.5h1.76V56.82H28.63Z"/><rect class="cls-1" x="28.38" y="22.62" width="2.26" height="2.26"/><path class="cls-1" d="M30.89,25.13H28.13V22.37h2.76Zm-2.26-.5h1.76V22.87H28.63Z"/><rect class="cls-1" x="30.64" y="56.57" width="2.26" height="2.26"/><path class="cls-1" d="M33.16,59.08H30.39V56.32h2.77Zm-2.27-.5h1.77V56.82H30.89Z"/><rect class="cls-1" x="32.61" y="47.46" width="2.26" height="2.26"/><path class="cls-1" d="M35.12,50H32.36V47.21h2.76Zm-2.26-.5h1.76V47.71H32.86Z"/><rect class="cls-1" x="30.12" y="45" width="2.26" height="2.26"/><path class="cls-1" d="M32.63,47.52H29.87V44.75h2.76ZM30.37,47h1.76V45.25H30.37Z"/><rect class="cls-1" x="30.64" y="22.62" width="2.26" height="2.26"/><path class="cls-1" d="M33.16,25.13H30.39V22.37h2.77Zm-2.27-.5h1.77V22.87H30.89Z"/><rect class="cls-1" x="32.91" y="58.83" width="2.26" height="2.26"/><path class="cls-1" d="M35.42,61.34H32.66V58.58h2.76Zm-2.26-.5h1.76V59.08H33.16Z"/><rect class="cls-1" x="32.91" y="20.35" width="2.26" height="2.26"/><path class="cls-1" d="M35.42,22.87H32.66V20.1h2.76Zm-2.26-.5h1.76V20.6H33.16Z"/><rect class="cls-1" x="35.17" y="58.83" width="2.26" height="2.26"/><path class="cls-1" d="M37.68,61.34H34.92V58.58h2.76Zm-2.26-.5h1.76V59.08H35.42Z"/><rect class="cls-1" x="37.61" y="58.83" width="2.26" height="2.26"/><path class="cls-1" d="M40.13,61.34H37.36V58.58h2.77Zm-2.27-.5h1.77V59.08H37.86Z"/><rect class="cls-1" x="35.12" y="49.91" width="2.26" height="2.26"/><path class="cls-1" d="M37.64,52.42H34.87V49.66h2.77Zm-2.27-.5h1.77V50.16H35.37Z"/><rect class="cls-1" x="30.91" y="36.2" width="2.26" height="2.26"/><path class="cls-1" d="M33.42,38.71H30.66V36h2.76Zm-2.26-.5h1.76V36.45H31.16Z"/><rect class="cls-1" x="30.91" y="33.93" width="2.26" height="2.26"/><path class="cls-1" d="M33.42,36.45H30.66V33.68h2.76ZM31.16,36h1.76V34.18H31.16Z"/><rect class="cls-1" x="33.17" y="36.2" width="2.26" height="2.26"/><path class="cls-1" d="M35.68,38.71H32.92V36h2.76Zm-2.26-.5h1.76V36.45H33.42Z"/><rect class="cls-1" x="33.17" y="33.93" width="2.26" height="2.26"/><path class="cls-1" d="M35.68,36.45H32.92V33.68h2.76ZM33.42,36h1.76V34.18H33.42Z"/><rect class="cls-1" x="35.17" y="20.35" width="2.26" height="2.26"/><path class="cls-1" d="M37.68,22.87H34.92V20.1h2.76Zm-2.26-.5h1.76V20.6H35.42Z"/><rect class="cls-1" x="37.39" y="49.91" width="2.26" height="2.26"/><path class="cls-1" d="M39.9,52.42H37.14V49.66H39.9Zm-2.26-.5H39.4V50.16H37.64Z"/><rect class="cls-1" x="37.43" y="20.35" width="2.26" height="2.26"/><path class="cls-1" d="M40,22.87H37.18V20.1H40Zm-2.27-.5h1.77V20.6H37.68Z"/><circle class="cls-1" cx="45.65" cy="36.34" r="2.52"/><path class="cls-1" d="M38.93,58.57c9.53,0,18.56-8.07,18.56-17.8S47.51,22.83,38,22.83V20c5.42,0,12.47,2.15,16.3,6.06a21,21,0,0,1,0,29.28c-3.83,3.91-9.9,6.06-15.32,6.06Z"/><path class="cls-1" d="M39.53,49.61h0A9.14,9.14,0,0,0,48,44a1.48,1.48,0,1,1,2.75,1.12,12,12,0,0,1-11.14,7.49h0Z"/></svg>