<svg id="Layer_1" data-name="Layer 1" xmlns="http://www.w3.org/2000/svg" viewBox="0 0 80 80"><defs><style>.cls-1{fill:#7d4ac7;}</style></defs><title>aml research icons</title><path class="cls-1" d="M46.45,65a5.64,5.64,0,0,1-4-9.62,3.37,3.37,0,0,0,1-2.42,3.41,3.41,0,0,0-1-2.43l-.07-.07h0a5.57,5.57,0,0,1-.93-1.29c0-.09-.09-.18-.13-.27l-.1-.22a5.74,5.74,0,0,1-.4-2.59.66.66,0,0,0,0-.14c0-.19,0-.35.08-.5a4.1,4.1,0,0,1,.14-.53,3.38,3.38,0,0,1,.18-.51,4.67,4.67,0,0,1,.23-.5,5.49,5.49,0,0,1,1-1.33l.33-.4A3.42,3.42,0,0,0,38,37.41l-.43.39-.25.3a3.42,3.42,0,0,0,.33,4.46l.06.07h0a5.65,5.65,0,0,1-.06,7.89,5.63,5.63,0,1,1-8-8,3.44,3.44,0,0,0,0-4.85,3.44,3.44,0,0,0-4.85,0,5.63,5.63,0,1,1-.14-8.09l.09.08a3.46,3.46,0,0,0,4.54.35l.35-.29v0h0l.06-.08a.27.27,0,0,0,.07-.08l.18-.22a3.43,3.43,0,0,0-.32-4.46l-.07-.08a5.63,5.63,0,1,1,8,.08,3.43,3.43,0,0,0,4.85,4.85,5.42,5.42,0,0,1,.65-.55,5.62,5.62,0,0,1,8.75,6,5.48,5.48,0,0,1-1.44,2.47,3.43,3.43,0,0,0,4.85,4.85,5.66,5.66,0,0,1,8,0h0a5.63,5.63,0,0,1-7.82,8.11l-.12-.12a3.45,3.45,0,0,0-4.52-.33l-.29.24-.08.08-.06.06a.27.27,0,0,1-.07.08l-.19.23a3.45,3.45,0,0,0,.33,4.47l.06.06h0a5.65,5.65,0,0,1-.06,7.9A5.59,5.59,0,0,1,46.45,65ZM44,49a5.65,5.65,0,0,1,0,8,3.42,3.42,0,0,0,0,4.85,3.5,3.5,0,0,0,4.85,0,3.44,3.44,0,0,0,0-4.81l0-.06a5.66,5.66,0,0,1-.48-7.37l.25-.29v0a.91.91,0,0,1,.18-.21l.08-.08a1.22,1.22,0,0,1,.17-.15l.09-.08.27-.22a5.65,5.65,0,0,1,7.41.48h0l0,0a3.43,3.43,0,1,0,0-4.88,5.63,5.63,0,1,1-8-8A3.43,3.43,0,0,0,44.43,31a4.23,4.23,0,0,0-.41.33,5.63,5.63,0,0,1-8-8,3.43,3.43,0,1,0-4.88,0l.06.07a5.67,5.67,0,0,1,.47,7.36l-.24.29,0,0a1.21,1.21,0,0,1-.21.24l-.08.09-.21.18h0l-.26.21a5.66,5.66,0,0,1-7.41-.46l-.05,0a3.43,3.43,0,0,0-4.81,4.88,3.51,3.51,0,0,0,4.85,0,5.63,5.63,0,1,1,8,8,3.44,3.44,0,0,0,0,4.85,3.52,3.52,0,0,0,4.85,0,3.44,3.44,0,0,0,0-4.81l0,0a5.64,5.64,0,0,1-.49-7.38l.24-.3,0,0a1.06,1.06,0,0,1,.17-.2l.12-.11a1,1,0,0,1,.21-.19h0l.26-.22a5.63,5.63,0,0,1,7.92,7.86l-.25.3h0a1,1,0,0,1-.19.22l-.09.09h0a4,4,0,0,0-.56.77c-.05.1-.09.2-.13.29s-.08.22-.12.32-.06.22-.08.32a2.51,2.51,0,0,0,0,.27.28.28,0,0,1,0,.08v0a3.4,3.4,0,0,0,.23,1.58l.15.3a3.2,3.2,0,0,0,.56.78Z"/></svg>