<svg width="646px" height="494px" viewBox="0 0 646 494" version="1.1" xmlns="http://www.w3.org/2000/svg" xmlns:xlink="http://www.w3.org/1999/xlink">
    <defs>
        <linearGradient x1="3.15031154%" y1="50.0000221%" x2="84.6627403%" y2="50.0000221%" id="linearGradient-1">
            <stop stop-color="#468EBA" offset="0%"></stop>
            <stop stop-color="#7EE1CC" offset="100%"></stop>
        </linearGradient>
    </defs>
    <g id="Page-1" stroke="none" stroke-width="1" fill="none" fill-rule="evenodd">
        <g id="01_Home-Page" transform="translate(-715.000000, -231.000000)">
            <g id="Header" transform="translate(51.000000, 58.000000)">
                <g id="Illustration" transform="translate(629.000000, 173.000000)">
                    <path d="M654.441174,231.8979 C654.67914,212.961595 646.084264,193.67561 625.404828,184.828321 C615.241738,180.482284 605.112642,177.493937 596.069916,170.580598 C575.462905,154.827106 575.835374,124.850869 570.215818,99.2973844 C557.868165,43.1717775 510.356161,-1.41435184 462.261803,0.0343271672 C427.591121,1.07980241 396.244579,2.36256128 364.636422,37.8837423 C343.009554,62.1901496 328.951795,92.0968075 308.872449,117.154316 C287.607704,143.689048 261.695962,156.420296 232.601973,164.94645 C205.083587,173.008741 175.151542,182.601779 154.08929,206.779732 C134.298165,229.500086 137.181845,253.264131 145.668824,281.160122 C155.026376,311.923142 134.735668,332.85584 113.575865,344.834203 C95.7623741,354.919649 72.0484964,354.041878 63.7773134,378.171661 C54.8099676,404.331735 81.4474336,404.779541 106.216641,404.779541 C130.985848,404.779541 451.693727,402.479852 541.331711,405.680505 C565.456488,406.542219 642.431995,414.474272 653.319332,378.171661 C660.730288,353.463834 641.574725,340.6077 635.780758,315.516294 C627.481492,279.582989 653.860299,278.196753 654.441174,231.8979 Z" id="Fill-1" fill="#EEF5FF"></path>
                    <circle id="Oval" stroke="#EEF5FF" stroke-width="15" cx="178" cy="62.5" r="31.5"></circle>
                    <circle id="Oval" stroke="#2C62EF" stroke-width="8" cx="651.5" cy="98" r="15.5"></circle>
                    <g id="Group-28" transform="translate(35.000000, 59.500000)">
                        <path d="M480.545085,17.269795 C475.977534,19.227889 470.687934,17.1123513 468.729895,12.5446719 C466.771857,7.97699257 468.889144,2.68724347 473.456695,0.729149556 C478.022436,-1.22713466 483.312036,0.888403036 485.270075,5.45608238 C487.228114,10.0237617 485.110826,15.3135108 480.545085,17.269795 Z" id="Fill-5" fill="#FF696A"></path>
                        <path d="M3,227 C1.34245077,227 0,225.657916 0,224.00082 C0,222.343724 1.34245077,221 3,221 C4.65754923,221 6,222.343724 6,224.00082 C6,225.657916 4.65754923,227 3,227 Z" id="Fill-9" fill="#FF696A"></path>
                        <path d="M611.99918,156 C610.342084,156 609,154.657916 609,153.00082 C609,151.343724 610.342084,150 611.99918,150 C613.656276,150 615,151.343724 615,153.00082 C615,154.657916 613.656276,156 611.99918,156 Z" id="Fill-11" fill="#FF696A"></path>
                        <path d="M309.00082,35 C307.343724,35 306,33.6562756 306,31.9991797 C306,30.3420837 307.343724,29 309.00082,29 C310.657916,29 312,30.3420837 312,31.9991797 C312,33.6562756 310.657916,35 309.00082,35 Z" id="Fill-13" fill="#FF696A"></path>
                        <path d="M204,94 C203.447684,94 203,93.5550294 203,93.0060618 L203,85.9922334 C203,85.4432658 203.447684,85 204,85 C204.552316,85 205,85.4432658 205,85.9922334 L205,93.0060618 C205,93.5550294 204.552316,94 204,94" id="Fill-15" fill="#FF696A"></path>
                        <path d="M208.00625,90 L200.99375,90 C200.444886,90 200,89.5523156 200,89 C200,88.4476844 200.444886,88 200.99375,88 L208.00625,88 C208.553409,88 209,88.4476844 209,89 C209,89.5523156 208.553409,90 208.00625,90" id="Fill-17" fill="#FF696A"></path>
                        <path d="M26.3812,370.00055 C25.7392,370.00055 25.2152,369.520217 25.2152,368.929883 L25.2152,361.389383 C25.2152,360.79905 25.7392,360.32055 26.3812,360.32055 C27.0232,360.32055 27.5472,360.79905 27.5472,361.389383 L27.5472,368.929883 C27.5472,369.520217 27.0232,370.00055 26.3812,370.00055" id="Fill-19" fill="#FF696A"></path>
                        <path d="M30.00625,366 L22.99375,366 C22.4448864,366 22,365.552316 22,365 C22,364.4494 22.4448864,364 22.99375,364 L30.00625,364 C30.5534091,364 31,364.4494 31,365 C31,365.552316 30.5534091,366 30.00625,366" id="Fill-22" fill="#FF696A"></path>
                        <path d="M642,261 C641.447684,261 641,260.553409 641,260.004545 L641,252.99375 C641,252.444886 641.447684,252 642,252 C642.5506,252 643,252.444886 643,252.99375 L643,260.004545 C643,260.553409 642.5506,261 642,261" id="Fill-24" fill="#FF696A"></path>
                        <path d="M645.00625,258 L637.99375,258 C637.444886,258 637,257.552316 637,257 C637,256.4494 637.444886,256 637.99375,256 L645.00625,256 C645.553409,256 646,256.4494 646,257 C646,257.552316 645.553409,258 645.00625,258" id="Fill-26" fill="#FF696A"></path>
                        <polyline id="Stroke-7" stroke="#FFFFFF" stroke-width="1.056" stroke-linecap="round" stroke-linejoin="round" points="474 11.1773099 478.293176 13 480 5"></polyline>
                        <path d="M133.667117,82.3579211 C129.050524,80.5174955 126.801043,75.2839547 128.643337,70.6675086 C130.482011,66.052872 135.715718,63.8016533 140.332311,65.6420789 C144.947095,67.4825045 147.198385,72.7160453 145.357901,77.3324914 C143.517417,81.947128 138.28371,84.1983467 133.667117,82.3579211 Z" id="Fill-1" fill="#FF696A"></path>
                        <polyline id="Stroke-3" stroke="#FFFFFF" stroke-width="1.056" stroke-linecap="round" stroke-linejoin="round" points="134 73 136.069648 77 143 73.2861736"></polyline>
                    </g>
                    <g id="Illustration_2" transform="translate(106.000000, 23.500000)">
                        <g id="shadow" opacity="0.3" transform="translate(11.000000, 442.000000)" fill="#D3DEEF">
                            <ellipse id="Oval" cx="71.5" cy="14" rx="71.5" ry="14"></ellipse>
                            <ellipse id="Oval" cx="203" cy="15" rx="46" ry="10"></ellipse>
                            <ellipse id="Oval" cx="398.5" cy="15" rx="71.5" ry="10"></ellipse>
                        </g>
                        <g id="phone" transform="translate(299.000000, 0.000000)">
                            <path d="M184.796466,402.353835 L18.2580136,402.353835 C8.48852755,402.353835 0.571202477,394.447001 0.571202477,384.692019 L0.571202477,17.8610505 C0.571202477,8.10450989 8.49008793,0.196117668 18.2580136,0.196117668 L184.796466,0.196117668 C194.564391,0.196117668 202.481716,8.10450989 202.481716,17.8594922 L202.481716,384.692019 C202.481716,394.447001 194.564391,402.353835 184.796466,402.353835" id="Fill-1" fill="#C7D0DE"></path>
                            <polygon id="Fill-3" fill="#FFFFFF" points="6 362 196 362 196 32 6 32"></polygon>
                            <polygon id="Stroke-5" points="6 362 196 362 196 32 6 32"></polygon>
                            <polygon id="Fill-7" fill="url(#linearGradient-1)" points="6 138 196 138 196 63 6 63"></polygon>
                            <polygon id="Fill-9" fill="#235472" points="6 63 196 63 196 32 6 32"></polygon>
                            <path d="M120.661233,19.9591622 L80.4010063,19.9591622 C79.6211321,19.9591622 78.989434,19.326103 78.989434,18.5464733 C78.989434,17.7668437 79.6211321,17.1337844 80.4010063,17.1337844 L120.661233,17.1337844 C121.441107,17.1337844 122.072805,17.7668437 122.072805,18.5464733 C122.072805,19.326103 121.441107,19.9591622 120.661233,19.9591622" id="Fill-11" fill="#153851"></path>
                            <g id="Group-4" opacity="0.3" transform="translate(53.318470, 80.695273)" fill="#FFFFFF">
                                <path d="M76.4864755,6.41635185 L17.9148025,6.41635185 C16.150727,6.41635185 14.7064,4.97247778 14.7064,3.20895556 C14.7064,1.44387407 16.150727,-6.03961325e-14 17.9148025,-6.03961325e-14 L76.4864755,-6.03961325e-14 C78.2521107,-6.03961325e-14 79.6964377,1.44387407 79.6964377,3.20895556 C79.6964377,4.97247778 78.2521107,6.41635185 76.4864755,6.41635185" id="Fill-12"></path>
                                <path d="M89.6605786,23.8362404 L4.74319497,23.8362404 C2.13373585,23.8362404 5.68434189e-14,21.7016144 5.68434189e-14,19.0929737 C5.68434189e-14,16.4858922 2.13373585,14.3512663 4.74319497,14.3512663 L89.6605786,14.3512663 C92.268478,14.3512663 94.4037736,16.4858922 94.4037736,19.0929737 C94.4037736,21.7016144 92.268478,23.8362404 89.6605786,23.8362404" id="Fill-13"></path>
                                <path d="M76.4864755,38.1862593 L17.9148025,38.1862593 C16.150727,38.1862593 14.7064,36.7423852 14.7064,34.978863 C14.7064,33.2137815 16.150727,31.7699074 17.9148025,31.7699074 L76.4864755,31.7699074 C78.2521107,31.7699074 79.6964377,33.2137815 79.6964377,34.978863 C79.6964377,36.7423852 78.2521107,38.1862593 76.4864755,38.1862593" id="Fill-14"></path>
                            </g>
                            <path d="M78.8542038,160.166196 L20.2825308,160.166196 C18.5168956,160.166196 17.0741283,158.722321 17.0741283,156.958799 C17.0741283,155.193718 18.5168956,153.749844 20.2825308,153.749844 L78.8542038,153.749844 C80.6182792,153.749844 82.0626063,155.193718 82.0626063,156.958799 C82.0626063,158.722321 80.6182792,160.166196 78.8542038,160.166196" id="Fill-15" fill="#DADBDB"></path>
                            <polygon id="Fill-16" fill="#DADBDB" points="6.01504403 218.253593 196.717686 218.253593 196.717686 216.694333 6.01504403 216.694333"></polygon>
                            <polygon id="Fill-17" fill="#DADBDB" points="6.01504403 296.216556 196.717686 296.216556 196.717686 294.657296 6.01504403 294.657296"></polygon>
                            <polygon id="Fill-18" fill="#DADBDB" points="6.01504403 327.401741 196.717686 327.401741 196.717686 325.842481 6.01504403 325.842481"></polygon>
                            <polygon id="Fill-19" fill="#DADBDB" opacity="0.3" points="6.23808805 191.159904 196.942289 191.159904 196.942289 172.339644 6.23808805 172.339644"></polygon>
                            <polygon id="Fill-20" fill="#DADBDB" opacity="0.3" points="6.23808805 266.004348 196.942289 266.004348 196.942289 247.184089 6.23808805 247.184089"></polygon>
                            <path d="M78.8542038,206.800833 L20.2825308,206.800833 C18.5168956,206.800833 17.0741283,205.356959 17.0741283,203.591878 C17.0741283,201.828356 18.5168956,200.384481 20.2825308,200.384481 L78.8542038,200.384481 C80.6182792,200.384481 82.0626063,201.828356 82.0626063,203.591878 C82.0626063,205.356959 80.6182792,206.800833 78.8542038,206.800833" id="Fill-21" fill="#DADBDB"></path>
                            <path d="M78.8542038,235.201649 L20.2825308,235.201649 C18.5168956,235.201649 17.0741283,233.757775 17.0741283,231.992694 C17.0741283,230.229171 18.5168956,228.785297 20.2825308,228.785297 L78.8542038,228.785297 C80.6182792,228.785297 82.0626063,230.229171 82.0626063,231.992694 C82.0626063,233.757775 80.6182792,235.201649 78.8542038,235.201649" id="Fill-22" fill="#DADBDB"></path>
                            <path d="M78.8542038,283.538686 L20.2825308,283.538686 C18.5168956,283.538686 17.0741283,282.094812 17.0741283,280.329731 C17.0741283,278.566209 18.5168956,277.122334 20.2825308,277.122334 L78.8542038,277.122334 C80.6182792,277.122334 82.0626063,278.566209 82.0626063,280.329731 C82.0626063,282.094812 80.6182792,283.538686 78.8542038,283.538686" id="Fill-23" fill="#DADBDB"></path>
                            <path d="M78.8542038,314.723871 L20.2825308,314.723871 C18.5168956,314.723871 17.0741283,313.279997 17.0741283,311.514916 C17.0741283,309.751394 18.5168956,308.30752 20.2825308,308.30752 L78.8542038,308.30752 C80.6182792,308.30752 82.0626063,309.751394 82.0626063,311.514916 C82.0626063,313.279997 80.6182792,314.723871 78.8542038,314.723871" id="Fill-24" fill="#DADBDB"></path>
                            <polygon id="Fill-25" fill="#DADBDB" opacity="0.3" points="6.01504403 345.44237 196.717686 345.44237 196.717686 326.622111 6.01504403 326.622111"></polygon>
                            <path d="M131.670873,51.0263115 L73.0992,51.0263115 C71.3335648,51.0263115 69.8907975,49.5824374 69.8907975,47.8173559 C69.8907975,46.0538337 71.3335648,44.6099596 73.0992,44.6099596 L131.670873,44.6099596 C133.436508,44.6099596 134.880835,46.0538337 134.880835,47.8173559 C134.880835,49.5824374 133.436508,51.0263115 131.670873,51.0263115" id="Fill-26" fill="#FFFFFF" opacity="0.3"></path>
                        </g>
                        <g id="Group-101" transform="translate(0.000000, 100.000000)">
                            <path d="M92.7713409,355.357167 C92.7713409,355.357167 112.984121,356.230352 128.247819,342.563445 C140.459089,331.62836 149.496272,313.349163 152.072976,305.350163 C154.65124,297.352723 155.757102,281.389026 151.898284,278.722693 C148.037907,276.05636 78.1393409,342.563445 78.1393409,342.563445 L92.7713409,355.357167 Z" id="Fill-27" fill="#0D2E3F"></path>
                            <path d="M2.34554969,312.128731 C2.34554969,312.128731 10.7666314,302.603216 33.504644,302.632842 C51.2109082,302.656231 109.299059,318.566913 109.299059,318.566913 L84.0342541,345.568605 L2.34554969,312.128731 Z" id="Fill-28" fill="#0D2E3F"></path>
                            <polygon id="Fill-29" fill="#FFCA99" points="108.025369 350.619981 96.2336704 345.569541 92.2079597 353.145981 97.5438591 357.568041 106.551406 357.568041"></polygon>
                            <path d="M97.5441711,357.568041 C97.5441711,357.568041 101.498133,358.059207 104.446058,354.549315 C107.392423,351.040981 105.707894,349.567481 107.602989,349.356981 C109.498083,349.148041 117.710158,352.935481 125.919114,352.093481 C134.13119,351.251481 136.657982,349.999396 137.079114,353.046189 C137.500247,356.092981 136.420901,367.410085 126.525857,366.989085 C116.630813,366.566526 97.5441711,357.568041 97.5441711,357.568041" id="Fill-30" fill="#0A1828"></path>
                            <path d="M33.504644,316.036079 C46.3725686,323.874475 99.5069585,341.699927 99.5069585,341.699927 C99.5069585,341.699927 101.490958,355.368394 90.0018516,359.444297 C90.0018516,359.444297 25.9258264,341.370923 10.7666314,334.419746 C-4.39100377,327.468568 0.239889308,315.311023 2.34554969,312.128575 C4.45121006,308.946127 17.5047447,306.28759 33.504644,316.036079" id="Fill-31" fill="#183F5B"></path>
                            <path d="M81.9162717,221.650686 C83.1781082,222.308693 84.1264352,223.337804 84.7051019,224.539993 C85.3867119,225.859126 85.6253535,227.446452 85.3711145,228.983882 C84.6645484,232.991178 83.7786113,239.250045 82.8162465,245.853508 C81.2658566,256.453352 79.4971019,267.980956 77.9077182,272.588567 C77.5614541,273.639508 82.3405233,279.131219 80.2769761,281.694641 C80.2301836,281.774163 79.6499572,303.140693 79.5828881,303.213978 C79.5548126,303.228011 77.4288755,305.2722 77.4008,305.287793 C76.5850516,305.814823 73.5326239,307.065349 71.9541585,306.387071 C70.221278,305.685404 31.1526994,318.343471 31.4724478,317.973926 C47.8732025,299.1256 61.5490767,288.544467 62.5800704,286.717015 C64.6046239,283.12916 63.252322,246.511515 64.0711899,239.201708 C64.4564478,235.676223 65.7791145,231.151252 67.6367748,228.190219 C69.5037937,225.21983 72.2458314,223.400174 74.1112906,221.861186 C77.0529761,219.456808 78.5955673,219.899637 81.9162717,221.650686" id="Fill-32" fill="#1D58DB"></path>
                            <path d="M122.637248,278.772277 C120.559663,284.164196 120.062103,290.047281 121.32082,295.699596 C123.814858,306.921585 120.977675,307.674707 120.977675,307.674707 C120.977675,307.674707 107.476493,317.042737 94.2966189,318.444511 C82.4955623,319.699714 72.5350088,320.462192 72.7518138,310.453307 L76.5373233,313.468914 C76.5544805,312.860803 76.5685182,312.280759 76.582556,311.714748 C77.009927,289.219314 72.3182038,288.076377 71.1624302,262.888103 C69.9692226,237.048059 63.680317,233.622366 69.3437635,226.287611 C77.7196126,215.439844 99.9288704,209.916948 117.527512,214.075492 C130.74638,217.187774 135.099638,220.696107 134.993575,230.474222 C134.957701,233.723718 134.432065,237.670203 133.571084,242.513263 C131.387436,254.818937 126.176317,269.591359 122.637248,278.772277" id="Fill-33" fill="#2C62EF"></path>
                            <path d="M109.029067,199.342831 C104.012916,202.684324 100.776438,205.397435 94.2972428,205.397435 C91.8499975,205.397435 92.7967648,204.419779 90.5101736,203.894309 C91.6394314,204.488387 89.3621987,205.511261 90.2403371,205.698372 C91.9451421,206.063239 93.1835824,207.500876 93.2818465,209.231653 L93.6811421,216.659964 L96.583834,222.723924 L101.642098,219.451039 L109.011909,214.675027 L108.281947,203.148983 C108.281947,203.148983 107.065343,201.337124 109.029067,199.342831" id="Fill-34" fill="#FFE1BD"></path>
                            <path d="M97.0392805,211.98437 L97.5352805,218.896566 L96.583834,222.724547 L93.6811421,216.660588 L93.2818465,209.230718 C93.1835824,207.501499 91.9451421,206.062303 90.2403371,205.698996 C88.3546013,205.296707 89.2592553,203.912084 86.5796075,201.072673 C86.4205132,200.899596 86.2582994,200.712484 86.1210415,200.505103 C86.4501484,200.70157 86.886878,203.305533 92.9090667,203.977573 C97.3590289,204.474977 96.7195321,207.518651 97.0392805,211.98437" id="Fill-35" fill="#E8C5A0"></path>
                            <path d="M108.92394,209.304471 C108.92394,209.304471 110.705172,210.29616 112.475487,212.959374 C112.475487,212.959374 110.045399,214.046178 107.924141,215.340363 C105.988493,216.522282 96.6861535,223.091441 96.6861535,223.091441 L93.9503547,217.474989 C93.9503547,217.474989 103.664468,210.776411 108.92394,209.304471" id="Fill-36" fill="#E5E5E5"></path>
                            <path d="M93.9509786,217.475301 C93.9509786,217.475301 90.6957836,218.588612 89.6944252,221.017938 C89.6944252,221.017938 88.0317333,217.829253 90.1576704,212.153549 C90.1576704,212.153549 91.9420226,210.464871 93.316161,209.861438 L93.9509786,217.475301 Z" id="Fill-37" fill="#E5E5E5"></path>
                            <polygon id="Fill-38" fill="#B3C5CE" points="108.025369 309.767077 45.1269535 309.221336 82.5765132 323.184503"></polygon>
                            <polygon id="Fill-39" fill="#E8F1F8" points="82.4401912 324.666735 109.395764 322.15165 109.598531 319.931264 82.1953107 322.50872"></polygon>
                            <path d="M87.5680201,304.604993 L82.453605,307.416338 C82.453605,307.416338 77.4062591,303.926716 72.3932277,307.720393 C67.3786365,311.512512 73.4257811,322.23086 77.1426616,321.15653 C80.8595421,320.08376 91.6997937,312.052016 91.6997937,312.052016 L87.5680201,304.604993 Z" id="Fill-40" fill="#FFE1BD"></path>
                            <polygon id="Fill-41" fill="#474747" points="17.2522214 324.004361 10.9929509 325.869236 79.7123472 326.51321 109.845127 318.280321 45.8408503 318.957039"></polygon>
                            <path d="M112.200347,301.640374 C102.620372,304.651303 92.6457811,319.868114 92.6457811,319.868114 L91.7692025,318.458544 C91.7692025,318.458544 86.8201208,316.239718 85.4693786,311.677326 C84.9406239,309.888855 85.0014541,304.604526 85.0014541,304.604526 C85.0014541,304.604526 108.923316,292.651244 116.27441,284.558689 C119.839995,280.623118 120.162863,277.331522 123.574033,275.686503 C123.46797,275.426107 123.372825,275.171948 123.273001,274.902196 C119.540523,264.260251 119.713655,249.035644 118.177303,241.317311 C117.434863,237.590681 117.525328,233.775174 118.475215,230.241892 C119.12563,227.834396 120.167542,225.562555 121.627467,223.502774 C123.931215,220.259514 127.086586,217.775614 131.145052,218.718966 C132.667366,219.0698 134.00407,219.877496 135.025706,220.96274 C136.165882,222.160251 136.927039,223.724189 137.156322,225.372326 C138.678636,236.558451 143.49514,267.179185 143.270536,274.043044 C143.229982,275.246792 143.038133,276.353866 142.727743,277.348674 C142.654435,277.696389 142.549932,278.040985 142.423592,278.423003 C138.931316,288.159018 121.780322,298.629444 112.200347,301.640374" id="Fill-42" fill="#1D58DB"></path>
                            <path d="M82.4401912,324.666735 L17.1647195,318.694772 C14.9841912,318.495187 13.2435119,316.790916 12.9970717,314.61575 L7.83898365,269.164901 C7.56290818,266.724661 9.59837987,264.646168 12.0456252,264.869142 L73.1799648,270.462205 C75.0111094,270.630605 76.471034,272.060446 76.6784805,273.886339 L82.4401912,324.666735 Z" id="Fill-43" fill="#D4DEDF"></path>
                            <path d="M78.8128403,180.415607 C78.6303497,180.400014 78.7317333,181.435362 77.2842868,183.111566 C75.8352805,184.78777 75.7198591,188.169803 75.7619723,188.059096 C75.807205,187.951507 72.9637836,180.192633 73.7779723,178.293455 C74.592161,176.391159 76.2688906,175.909347 76.6962616,176.531492 C77.122073,177.148959 78.8128403,180.415607 78.8128403,180.415607" id="Fill-44" fill="#632F00"></path>
                            <path d="M111.496589,193.332666 C111.707155,195.507833 111.782023,197.458466 111.619809,198.872714 C111.602652,199.059826 111.571457,199.265648 111.523104,199.473029 C111.48723,199.66014 111.456035,199.864403 111.390526,200.073344 C109.805821,206.340007 101.869821,215.181007 96.2968403,215.898266 C95.560639,215.963755 94.835356,215.977789 94.1412679,215.938807 C86.3784,215.584855 81.8442113,209.224637 79.2144755,202.457451 C79.1255698,202.212648 79.0366642,201.984996 78.9493182,201.755785 C76.6315321,195.465733 75.8859723,189.004163 75.6847648,186.743237 C75.6364126,186.208411 75.6254943,185.905914 75.6254943,185.905914 C75.1684881,183.43137 75.5709031,181.507244 75.8033057,180.708903 C75.8797333,180.432914 75.9343245,180.29414 75.9343245,180.29414 C75.9343245,180.29414 76.0341484,180.267633 76.197922,180.219296 C78.3503748,179.555051 92.9870541,175.0753 93.3052428,175.045674 C93.6234314,175.019166 108.367733,176.081022 108.367733,176.081022 C108.367733,176.081022 110.754148,185.974522 111.496589,193.332666" id="Fill-45" fill="#FFCA99"></path>
                            <path d="M113.57121,192.985575 C113.783336,195.160742 113.856644,197.111375 113.69599,198.527183 C113.677273,198.712734 113.646078,198.918557 113.597726,199.125938 C112.587009,205.391042 104.920845,215.127057 96.2969962,215.897331 C95.6309836,215.990886 94.9774491,216.050138 94.3722667,216.070409 C85.0387321,216.447749 81.7944553,209.41549 79.2146314,202.456516 C79.1257258,202.213271 79.0368201,201.98406 78.9494742,201.756409 C78.9494742,201.756409 82.1968704,206.93159 83.8143296,207.092194 C85.4317887,207.249679 83.4228327,205.224201 87.816644,203.509016 C90.6195119,202.414416 94.8589082,202.515768 96.8382289,202.760571 C98.6662541,203.002257 101.946405,203.936253 103.108418,204.103094 C103.398531,204.128042 103.616896,204.126483 103.779109,204.043842 C105.32794,203.24706 108.455235,198.007949 108.999587,194.668016 C109.221072,193.366034 112.354606,192.773516 113.57121,192.985575" id="Fill-46" fill="#8C4200"></path>
                            <path d="M69.3378365,172.67404 C69.3378365,172.67404 69.8151195,183.919418 88.2950189,179.420955 C106.774918,174.922492 105.357107,193.289007 105.357107,193.289007 C105.357107,193.289007 107.921333,187.133051 108.68717,189.503126 C109.451447,191.8732 108.62322,197.97614 108.62322,197.97614 C108.62322,197.97614 113.695522,198.526559 113.851497,196.030185 C113.945082,194.541092 114.110415,173.258763 110.451245,168.205203 C106.793635,163.153203 102.42634,163.380855 102.42634,163.380855 C102.42634,163.380855 97.8016855,159.485826 86.9037233,162.672951 C76.0073208,165.860077 70.2690063,161.838748 70.2970818,162.152159 C70.3235975,162.46557 68.5642013,165.619951 69.3378365,172.67404" id="Fill-47" fill="#8C4200"></path>
                            <path d="M101.958415,194.435219 C101.348553,196.85363 100.085157,198.048022 96.7847296,198.448752 C92.107044,199.016322 91.2741384,197.711222 90.662717,196.119219 C90.0512956,194.528774 89.881283,193.187811 89.9514717,192.815148 C90.1433208,191.798511 91.127522,191.630111 94.0801258,191.123352 C97.0327296,190.616593 100.975774,189.985093 101.532604,190.41233 C102.087874,190.836448 102.490289,192.331778 101.958415,194.435219 M84.8152201,196.855189 C84.6171321,198.548544 83.3864906,200.134311 80.7957484,200.460196 C78.3843774,200.764252 77.3284277,199.873915 76.1383396,197.683156 C75.1042264,195.774622 75.1213836,194.227837 75.5549937,193.678978 C75.9886038,193.127 77.2800755,193.100493 80.2669937,192.860367 C83.2523522,192.620241 84.2490314,192.539159 84.685761,193.477833 C84.8464151,193.82087 85.0148679,195.161833 84.8152201,196.855189 M105.138742,189.31617 C104.953132,188.550574 101.594994,188.694026 99.2132579,188.993404 C96.8330818,189.292781 90.4864654,190.091122 89.1513208,190.872311 C87.8177358,191.655059 87.8692075,192.182089 87.1735597,192.260052 C86.4903899,192.338015 86.4669937,191.823459 84.9805535,191.397781 C83.4941132,190.968985 79.8302642,191.430526 77.4500881,191.731463 C75.0699119,192.029281 72.7989182,192.490822 72.8082767,193.278248 C72.8176352,194.067233 73.1685786,195.425348 73.6411824,195.629611 C74.1153459,195.832315 74.1153459,195.793333 75.8326289,198.847922 C76.7903145,200.555311 78.3422642,201.498663 81.4321258,200.906144 C85.3611321,200.153022 85.7635472,196.911322 86.1300881,195.550089 C86.4950692,194.188856 86.7836226,193.978356 87.3794465,193.900393 C87.9877484,193.82243 88.3761258,193.950289 89.0670943,195.180544 C89.7580629,196.409241 90.1651572,199.281396 94.153434,199.306344 C99.3754717,199.339089 101.704176,197.956026 102.544881,195.489278 C103.685057,192.144667 103.460453,192.141548 103.869107,191.826578 C104.057836,191.681567 105.204252,191.277719 105.241686,190.836448 C105.285358,190.325011 105.240126,189.726256 105.138742,189.31617" id="Fill-48" fill="#282C3B"></path>
                            <polygon id="Fill-49" fill="#FFCA99" points="61.9914214 343.023114 73.9359748 338.348455 77.7199245 346.048077 72.2452075 350.300177 63.2438994 350.013274"></polygon>
                            <path d="M72.2455195,350.300177 C72.2455195,350.300177 68.2790792,350.665044 65.4434566,347.064714 C62.6093937,343.464385 64.3391547,342.045459 62.4518591,341.774148 C60.5645635,341.504396 52.2370667,345.029881 44.0577459,343.929044 C35.8784252,342.828207 33.3921862,341.4966 32.8743497,344.5278 C32.3565132,347.559 33.077117,358.905729 42.9799597,358.796581 C52.8843623,358.690551 72.2455195,350.300177 72.2455195,350.300177" id="Fill-50" fill="#0A1828"></path>
                            <path d="M69.8449107,334.333051 C69.8449107,334.333051 100.033842,309.788751 112.666244,296.740869 C125.300206,283.689869 133.300156,270.946043 148.038219,276.055736 C162.774722,281.163869 144.24803,308.564732 130.773364,319.279962 C117.298697,329.995191 84.0136654,353.624206 84.0136654,353.624206 C84.0136654,353.624206 66.1592252,347.296732 69.8449107,334.333051" id="Fill-51" fill="#183F5B"></path>
                            <path d="M47.4121409,294.759207 C47.4121409,297.693733 45.0335245,300.071603 42.098078,300.071603 C39.1641912,300.071603 36.7855748,297.693733 36.7855748,294.759207 C36.7855748,291.82624 39.1641912,289.44837 42.098078,289.44837 C45.0335245,289.44837 47.4121409,291.82624 47.4121409,294.759207" id="Fill-52" fill="#B4BCC5"></path>
                            <path d="M191.261655,29.6431885 C191.261655,29.6431885 190.375718,21.4492811 181.054662,23.2361922 C171.732045,25.0231033 162.796247,33.2341626 164.681982,44.3797478 C166.569278,55.5237737 160.489379,55.6142107 159.018536,55.0014219 C159.018536,55.0014219 166.397706,62.7914811 176.157052,58.1807515 C185.916397,53.5700219 185.417278,36.71287 185.417278,36.71287 L191.261655,29.6431885 Z" id="Fill-53" fill="#153851"></path>
                            <path d="M214.050048,25.2677511 C214.050048,25.2677511 223.985645,30.7844104 216.477016,50.5121585 C214.081243,56.8084474 198.956362,45.5084956 198.956362,45.5084956 L214.050048,25.2677511 Z" id="Fill-54" fill="#153851"></path>
                            <path d="M220.305887,339.14321 C220.305887,339.14321 221.578642,344.943654 221.485057,349.565299 C220.898591,352.769576 221.491296,353.714487 221.491296,353.714487 L233.655774,352.676021 C233.655774,352.676021 228.277761,350.034636 228.65522,337.491954 C229.032679,324.949273 220.305887,339.14321 220.305887,339.14321" id="Fill-55" fill="#FFCA99"></path>
                            <path d="M221.334073,350.536249 C221.334073,350.536249 226.62318,352.496238 231.848337,351.01962 C237.995306,353.855912 242.323608,354.973901 247.913746,355.680246 C253.502325,356.388149 252.511884,360.984846 242.959985,360.348668 C233.408086,359.71249 226.74484,360.150642 224.622023,360.362701 C222.499205,360.57476 219.103633,360.856986 218.961696,359.372571 C218.821318,357.886597 219.608991,350.045083 221.334073,350.536249" id="Fill-56" fill="#183F5B"></path>
                            <path d="M182.966289,339.14321 C182.966289,339.14321 184.239044,344.943654 184.145459,349.565299 C183.557434,352.769576 184.150138,353.714487 184.150138,353.714487 L196.314616,352.676021 C196.314616,352.676021 190.936604,350.034636 191.315623,337.491954 C191.693082,324.949273 182.966289,339.14321 182.966289,339.14321" id="Fill-57" fill="#FFCA99"></path>
                            <path d="M183.992916,350.536249 C183.992916,350.536249 189.282023,352.496238 194.50874,351.01962 C200.654148,353.855912 204.98245,354.973901 210.572589,355.680246 C216.162727,356.388149 215.172287,360.984846 205.620387,360.348668 C196.068488,359.71249 189.405243,360.150642 187.280865,360.362701 C185.159608,360.57476 181.762475,360.856986 181.620538,359.372571 C181.480161,357.886597 182.269394,350.045083 183.992916,350.536249" id="Fill-58" fill="#183F5B"></path>
                            <path d="M226.980518,168.643355 C226.980518,168.643355 232.562858,240.448803 233.026103,251.121933 C233.490908,261.795063 233.779462,274.317474 233.316216,280.814907 C232.852971,287.310781 231.731512,342.16864 231.731512,342.16864 C231.731512,342.16864 221.749122,346.734151 217.107311,342.50544 C217.107311,342.50544 214.463537,274.083585 212.141072,263.875114 C209.820166,253.665085 201.034103,210.741796 201.034103,210.741796 L211.498455,157.839248 L226.980518,168.643355 Z" id="Fill-59" fill="#10354C"></path>
                            <path d="M185.213107,257.154239 C187.069208,241.840754 183.959069,188.581136 184.096327,175.43658 C184.232025,162.290465 221.247975,168.976569 221.247975,168.976569 C221.247975,168.976569 209.353333,237.200399 207.958918,248.338187 C206.566063,259.474417 205.000075,271.535287 204.302868,282.206858 C203.60722,292.879987 194.935019,343.767973 194.935019,343.767973 C194.935019,343.767973 183.144881,346.852187 181.605409,343.000817 C178.386088,323.279306 185.213107,257.154239 185.213107,257.154239" id="Fill-60" fill="#183F5B"></path>
                            <path d="M449.038938,345.561433 C448.786259,346.983477 451.476825,350.74441 447.866008,353.908147 C444.258309,357.067207 436.049353,360.400903 441.488196,360.525644 C446.927039,360.651944 452.139718,359.390503 454.911391,358.026151 C457.675265,356.658681 455.468221,354.510021 458.898108,353.429455 C463.418259,352.002733 463.366787,351.71271 461.18158,346.794807 C458.171265,340.026062 449.851567,340.961618 449.038938,345.561433" id="Fill-61" fill="#0A1828"></path>
                            <path d="M413.413036,117.238164 C411.527301,122.132679 411.074974,127.473141 412.216709,132.603104 C414.481464,142.788186 411.90476,143.472701 411.90476,143.472701 C411.90476,143.472701 398.097867,152.232619 386.611879,155.814238 C378.382647,158.374541 371.366898,157.941067 371.563426,148.856823 L371.569665,148.732082 C371.583703,148.180104 371.596181,147.653075 371.610219,147.138519 C371.997036,126.721579 367.738923,125.683112 366.689213,102.819693 C365.606747,79.3653156 371.878496,66.2846896 378.089414,60.6105452 C384.309691,54.9504341 392.800961,54.7383748 408.772785,58.5133415 C420.773489,61.3387193 424.725892,64.5227267 424.627628,73.3980304 C424.596433,76.3481489 424.11759,79.9297674 423.336156,84.3268785 C421.355275,95.4958526 416.626118,108.903923 413.413036,117.238164" id="Fill-62" fill="#3EC19C"></path>
                            <path d="M384.435874,67.0067826 C384.435874,67.0067826 371.990642,107.792327 374.48,127.331405 L379.06566,135.670323 L384.078692,126.576723 C384.078692,126.576723 380.001509,87.5141604 387.804931,67.6959752 L384.435874,67.0067826 Z" id="Fill-63" fill="#12374F"></path>
                            <path d="M413.413036,117.238164 C411.527301,122.132679 411.074974,127.473141 412.216709,132.603104 C414.481464,142.788186 411.90476,143.472701 411.90476,143.472701 C411.90476,143.472701 398.097867,152.232619 386.611879,155.814238 L375.88237,154.797601 L371.586823,151.423364 L371.569665,148.732082 C371.583703,148.180104 371.596181,147.653075 371.610219,147.138519 C374.062143,147.372408 379.638244,147.659312 387.814445,146.71596 C394.131426,145.997141 399.87442,144.194638 403.702043,142.73673 C406.493992,141.681112 408.130169,138.796482 407.609213,135.857279 C406.915125,131.840627 406.093137,126.085401 406.124332,121.615004 C406.157087,117.11966 408.239351,109.52139 409.939477,104.042153 C411.240307,99.8337119 411.683275,95.4350415 411.371326,91.0488452 C410.841011,83.4599304 411.382244,76.2390007 411.382244,76.2390007 L419.889112,71.6329489 L424.627628,73.3980304 C424.596433,76.3481489 424.11759,79.9297674 423.336156,84.3268785 C421.355275,95.4958526 416.626118,108.903923 413.413036,117.238164" id="Fill-64" fill="#000000" opacity="0.1"></path>
                            <path d="M413.588196,160.567016 C414.572397,160.72762 417.085152,156.318034 417.085152,156.318034 L416.029203,154.919379 C415.434938,154.128834 414.603592,153.547231 413.656825,153.258768 L413.486813,153.204194 C412.638309,152.943797 411.708699,153.249412 411.212699,153.983823 C410.490536,155.055034 409.376875,156.274375 408.082284,156.227597 L408.058888,156.227597 C408.013655,156.249427 407.966863,156.249427 407.92163,156.249427 C406.779894,156.272816 412.605555,160.406412 413.588196,160.567016" id="Fill-65" fill="#F4D5B5"></path>
                            <path d="M374.826108,18.6560241 C374.826108,18.6560241 373.7608,21.63265 375.37358,23.996487 L381.957278,15.0822019 L377.365379,15.0416611 L374.826108,18.6560241 Z" id="Fill-66" fill="#153851"></path>
                            <path d="M410.590516,30.4426207 C410.298843,41.93748 400.381962,48.5970763 400.381962,48.5970763 L401.046415,59.0581467 L394.356654,63.3928874 L389.763195,66.3648356 L387.12878,60.8606504 L386.768478,54.1168541 C386.678013,52.54668 385.553434,51.2400207 384.006164,50.911017 C382.29356,50.5445911 379.914943,49.5451059 377.481736,46.9692096 C377.339799,46.8117244 377.191623,46.6417652 377.066843,46.4530948 L377.049686,46.4437393 C372.702667,40.5232319 371.057132,17.8438059 385.940252,11.4056244 C401.310013,4.73979111 410.889987,18.9337281 410.590516,30.4426207" id="Fill-67" fill="#8F4633"></path>
                            <path d="M393.905575,57.1190519 L394.356342,63.3935111 L389.764443,66.3639 L387.128468,60.8612741 L386.768166,54.1159185 C386.677701,52.5473037 385.554682,51.2406444 384.005852,50.9116407 C382.294808,50.5452148 379.914631,49.5457296 377.482984,46.9682741 C377.339487,46.8107889 377.191311,46.6408296 377.066531,46.4537185 C377.366003,46.6299148 380.962782,48.7380333 386.428141,49.3477037 C390.467889,49.7998889 393.613902,53.0649778 393.905575,57.1190519" id="Fill-68" fill="#6B2F20"></path>
                            <path d="M394.539145,33.9852578 C395.120931,34.2222652 395.676201,33.3241319 395.676201,33.3241319 C395.676201,33.3241319 398.904881,26.0782541 400.015421,24.9680615 C401.997862,22.9581763 406.680226,23.1437281 407.049887,29.3573763 C407.34156,34.1692504 401.654717,44.4291763 399.907799,47.4432244 C399.644201,47.9203578 399.750264,48.5549763 400.199472,48.8980133 C400.385082,49.0289911 400.622164,49.1100726 400.834289,49.1350207 L400.913836,49.1350207 C401.178994,49.1350207 401.442591,49.0570578 401.654717,48.8715059 C405.331044,45.6453985 421.518113,30.1245319 408.664226,15.5283059 C408.664226,15.5283059 398.454113,16.1894319 396.894365,21.1088948 C395.333057,26.0533059 394.222516,32.7160207 394.222516,32.7160207 C394.222516,32.7160207 393.930843,33.7201837 394.539145,33.9852578" id="Fill-69" fill="#153851"></path>
                            <path d="M374.826108,18.6560241 C374.826108,18.6560241 383.760347,11.6939315 397.328599,20.1763019 L408.438687,17.3431278 C408.438687,17.3431278 408.906611,17.1918796 408.658611,15.5265907 C408.413731,13.8628611 407.186209,-2.46570185 387.725228,1.20323519 C376.535592,3.31447222 369.680498,11.0671093 374.826108,18.6560241" id="Fill-70" fill="#153851"></path>
                            <path d="M383.575205,63.5364952 L383.639155,64.0697619 C383.762375,65.0817211 384.030652,66.0702915 384.436186,67.0074063 L387.805243,67.6950396 L390.740689,65.5105174 L387.374752,61.5983359 L386.852236,61.7324322 C385.644991,62.0396063 384.53445,62.6445989 383.621997,63.4912767 L383.575205,63.5364952 Z" id="Fill-71" fill="#12374F"></path>
                            <path d="M400.965464,54.1832785 C400.965464,54.1832785 402.581364,55.0829711 404.189464,57.499823 C404.189464,57.499823 401.98242,58.4883933 400.05925,59.6625156 C398.301414,60.7352859 389.856936,66.6978933 389.856936,66.6978933 L387.373816,61.5991156 C387.373816,61.5991156 396.189514,55.5180044 400.965464,54.1832785" id="Fill-72" fill="#24A37C"></path>
                            <path d="M387.374128,61.5989596 C387.374128,61.5989596 384.418405,62.6093596 383.510631,64.8157115 C383.510631,64.8157115 382.000795,61.9217263 383.931764,56.7683744 C383.931764,56.7683744 385.550782,55.2356226 386.798581,54.6898819 L387.374128,61.5989596 Z" id="Fill-73" fill="#24A37C"></path>
                            <path d="M410.858636,153.364486 C410.858636,153.364486 409.28797,155.336949 408.821605,155.592667 C408.3568,155.848386 408.278813,155.302645 408.453504,154.919067 C408.629756,154.53393 410.788448,152.843693 410.858636,153.364486" id="Fill-74" fill="#E5BB98"></path>
                            <path d="M400.834601,49.1354885 L400.914148,49.1354885 C401.179306,49.1354885 401.442903,49.0559663 401.653469,48.8719737 C405.331356,45.6458663 421.518425,30.1249996 408.664538,15.5287737 C408.664538,15.5287737 409.299356,18.0672478 409.034199,20.1816033 C409.034199,20.1816033 417.233796,33.42907 400.834601,49.1354885" id="Fill-75" fill="#153851"></path>
                            <path d="M429.596986,201.518777 C429.596986,201.518777 439.228433,169.692737 411.90476,143.472233 C411.90476,143.472233 397.261842,150.0258 385.535653,150.814785 C376.300382,151.438489 371.611779,150.482663 371.611779,150.482663 C371.611779,150.482663 370.833464,178.75827 370.802269,194.000029 L429.596986,201.518777 Z" id="Fill-76" fill="#183F5B"></path>
                            <path d="M368.312911,254.384371 C367.718647,240.153012 378.256307,241.679527 384.428231,252.037686 C404.190244,285.201571 384.353364,326.785456 382.222747,350.77466 C379.897162,346.913934 375.487753,345.605716 374.452081,345.688356 C372.769112,345.814656 371.858219,347.141586 371.858219,347.141586 C372.199804,317.712127 368.949288,269.599623 368.312911,254.384371" id="Fill-77" fill="#183F5B"></path>
                            <path d="M383.895109,255.926946 C382.120116,261.738306 366.833021,268.461831 368.430204,247.312039 C369.13677,237.931535 371.025625,186.129824 371.389047,181.137076 C371.755587,176.141209 372.588493,168.843876 375.002984,167.933269 C387.075436,163.378672 404.009625,178.545587 400.833977,197.29568 C398.714279,209.832124 387.576116,243.876991 383.895109,255.926946" id="Fill-78" fill="#183F5B"></path>
                            <path d="M371.90158,347.571474 C371.268322,348.801729 368.236171,351.650496 364.034209,353.527844 C359.835366,355.400514 350.930762,356.284614 355.876725,357.934311 C360.821127,359.587126 366.589077,358.586081 369.512045,358.119863 C372.431894,357.647407 375.261278,357.586596 378.708322,357.564766 C383.253429,357.533581 383.289303,357.254474 382.676322,352.130748 C381.832498,345.079777 373.94797,343.587566 371.90158,347.571474" id="Fill-79" fill="#0A1828"></path>
                            <path d="M418.965117,257.627786 C414.201645,244.205683 424.720589,242.557546 433.675104,250.637627 C462.337042,276.504179 455.641042,322.086005 460.677469,345.637057 C457.81845,347.593927 453.279582,348.295594 451.691758,348.209834 C450.00723,348.117838 449.241394,346.957749 449.241394,346.957749 C440.89206,318.736716 424.060815,271.980768 418.965117,257.627786" id="Fill-80" fill="#183F5B"></path>
                            <path d="M434.512377,253.784524 C435.050491,259.836009 423.408528,271.808002 416.941811,251.606239 C414.074994,242.645176 396.36561,193.92612 394.826138,189.164143 C393.288226,184.395928 391.319824,177.321569 393.214918,175.57208 C402.693509,166.818398 424.085459,174.514902 428.186038,193.08568 C430.931195,205.497383 433.397157,241.234046 434.512377,253.784524" id="Fill-81" fill="#183F5B"></path>
                            <path d="M216.508523,84.7906022 L234.280297,89.5681726 C234.280297,89.5681726 232.305655,104.529265 234.280297,108.970036 L221.938008,108.970036 C221.938008,108.970036 219.796473,115.386387 218.646938,118.345861 C217.495844,121.306895 227.018108,160.82788 228.498309,170.203706 C228.498309,170.203706 223.407291,178.933999 182.73841,174.433976 C182.73841,174.433976 181.205177,164.977069 186.442813,150.443213 C191.033152,137.700947 170.552096,105.393095 170.552096,105.393095 C170.552096,105.393095 173.927391,81.9964096 193.801706,77.8815244 C205.443668,75.4724689 205.551291,81.8436022 216.508523,84.7906022" id="Fill-82" fill="#FF6866"></path>
                            <path d="M213.299185,28.3786293 C213.299185,28.3786293 222.178833,54.5617107 217.494908,63.0783848 C213.774908,69.8471293 205.650179,69.0004515 205.650179,69.0004515 L205.650179,84.79107 C205.650179,84.79107 204.793877,85.6112404 203.305877,85.6954404 C200.713575,85.84357 193.80233,81.3357515 193.80233,81.3357515 L193.80233,44.8194589 L213.299185,28.3786293 Z" id="Fill-83" fill="#FFCB9B"></path>
                            <path d="M169.572886,113.918657 C169.572886,113.918657 161.137766,152.755127 164.232307,155.268653 C167.328408,157.782179 200.803728,157.783738 204.149389,158.462016 C207.493489,159.141853 223.939477,161.462031 231.251577,155.530609 C232.193665,154.765012 221.852533,156.66419 220.735753,153.898064 C219.617414,151.130379 216.090823,150.129334 216.090823,150.129334 L204.756131,153.46459 C204.756131,153.46459 179.184055,148.640242 177.457414,147.059153 C175.729213,145.479623 184.947326,114.082379 184.947326,114.082379 L169.572886,113.918657 Z" id="Fill-84" fill="#FFCA99"></path>
                            <path d="M168.212785,113.002748 C168.212785,113.002748 174.0712,86.5046959 182.87442,83.0010404 C191.6792,79.4973848 195.564533,92.5967219 191.869489,105.165911 C188.172886,117.7351 187.15593,122.358303 187.15593,122.358303 C187.15593,122.358303 175.013288,122.30217 168.212785,113.002748" id="Fill-85" fill="#F44D4D"></path>
                            <path d="M436.80162,102.352851 C436.80162,102.352851 444.183909,151.859333 440.141042,154.879618 C436.098174,157.898344 393.950652,160.190455 389.686299,160.878088 C385.421947,161.564162 368.303708,166.15774 359.36479,158.283481 C358.209016,157.265284 368.587582,156.766321 370.142652,153.323477 C371.697721,149.882192 376.206953,148.796947 376.206953,148.796947 L389.177821,154.525666 C389.177821,154.525666 417.08484,143.472077 424.627784,142.277684 C421.215054,137.599907 416.587281,105.246836 416.587281,105.246836 L436.80162,102.352851 Z" id="Fill-86" fill="#8F4633"></path>
                            <path d="M439.152005,104.380356 C439.152005,104.380356 433.391854,68.1213411 422.439301,63.2377411 C411.486747,58.3541411 403.742596,74.0122226 407.769867,90.0975411 C411.797137,106.18286 412.846848,112.081537 412.846848,112.081537 C412.846848,112.081537 429.274118,113.723437 439.152005,104.380356" id="Fill-87" fill="#24A37C"></path>
                            <path d="M215.819426,159.552874 C211.785917,159.552874 208.516684,156.283107 208.516684,152.250863 L208.516684,86.76977 C208.516684,82.7375256 211.785917,79.4693181 215.819426,79.4693181 L376.43764,79.4693181 C380.47115,79.4693181 383.740382,82.7375256 383.740382,86.76977 L383.740382,152.250863 C383.740382,156.283107 380.47115,159.552874 376.43764,159.552874 L215.819426,159.552874 Z" id="shadow" fill-opacity="0.1" fill="#000000"></path>
                            <path d="M218.938923,156.434355 C214.905414,156.434355 211.636181,153.164589 211.636181,149.132344 L211.636181,83.6512515 C211.636181,79.619007 214.905414,76.3507996 218.938923,76.3507996 L379.557137,76.3507996 C383.590647,76.3507996 386.859879,79.619007 386.859879,83.6512515 L386.859879,149.132344 C386.859879,153.164589 383.590647,156.434355 379.557137,156.434355 L218.938923,156.434355 Z" id="Fill-89" fill="#FFFFFF"></path>
                            <path d="M251.75603,149.615403 C249.265112,148.834214 246.587024,148.798351 245.953766,150.061351 C245.320508,151.32591 244.539074,156.978225 245.097464,157.907543 C245.654294,158.836862 255.995426,160.474084 258.023099,155.213143 C258.023099,155.213143 254.248508,150.396591 251.75603,149.615403 Z" id="Fill-90" fill="#FFCB9B"></path>
                            <path d="M351.836508,75.2834867 C351.836508,75.2834867 355.829464,80.9217681 358.594898,81.9384052 C361.361892,82.9566015 364.380005,83.1452719 365.162999,81.7544126 C365.945992,80.3635533 367.1392,74.0329607 366.558974,72.9539533 C365.981867,71.8749459 354.411653,69.4612126 351.836508,75.2834867" id="Fill-91" fill="#8F4633"></path>
                            <path d="M180.422652,341.902475 C180.517796,342.335949 180.768916,342.747593 180.725243,343.188864 C180.701847,343.453938 180.570828,343.70186 180.55367,343.966934 C180.500639,344.822967 181.534752,345.27983 182.377016,345.440434 C185.189243,345.970582 188.073218,345.97526 190.933796,345.89106 C192.278299,345.850519 193.678953,345.775675 194.848765,345.114549 C195.321369,344.846356 195.756538,344.465897 195.943708,343.95446 C196.129318,343.446141 195.999859,342.79593 195.542853,342.504349 C196.051331,342.323475 196.026375,341.520456 195.611482,341.17586 C195.199708,340.832823 194.610123,340.826586 194.07201,340.846856 C191.504664,340.951327 188.957595,341.328667 186.38713,341.384801 C185.123733,341.412867 183.852538,341.367649 182.60318,341.161827 C181.842023,341.037086 180.085746,340.358808 180.422652,341.902475" id="Fill-92" fill="#1C4D66"></path>
                            <path d="M216.522249,340.481678 C216.617394,340.915152 216.866953,341.328356 216.82484,341.769626 C216.799884,342.0347 216.670425,342.281063 216.653268,342.546137 C216.600236,343.40217 217.63279,343.859033 218.475054,344.019637 C221.28884,344.549785 224.171255,344.554463 227.033394,344.471822 C228.377897,344.429722 229.778551,344.354878 230.946803,343.693752 C231.419406,343.425559 231.856136,343.0451 232.043306,342.535222 C232.228916,342.025344 232.099457,341.376693 231.64245,341.083552 C232.150928,340.904237 232.125972,340.099659 231.711079,339.755063 C231.297746,339.412026 230.708161,339.405789 230.171608,339.426059 C227.604262,339.53053 225.055633,339.90943 222.486727,339.965563 C221.223331,339.99363 219.952136,339.948411 218.701218,339.742589 C217.94162,339.617848 216.185343,338.938011 216.522249,340.481678" id="Fill-93" fill="#1C4D66"></path>
                            <path d="M214.674571,32.8126948 C214.674571,32.8126948 207.897464,47.4323096 201.458823,50.1267096 C201.458823,50.1267096 199.534093,47.4323096 197.801213,48.9728578 C196.068332,50.5134059 198.548332,56.0939948 200.292131,56.6709207 C202.03593,57.2478467 196.735904,64.1771948 193.802018,64.5623319 C190.869691,64.9474689 179.510043,50.7051948 181.82159,39.5408985 C184.131577,28.3781615 189.877691,27.0309615 189.877691,27.0309615 C189.877691,27.0309615 198.094445,18.1774874 214.490521,25.4997689 L214.674571,32.8126948 Z" id="Fill-94" fill="#153851"></path>
                            <path d="M250.478752,107.460049 C250.478752,116.029738 243.528513,122.976238 234.956136,122.976238 C226.385318,122.976238 219.435079,116.029738 219.435079,107.460049 C219.435079,98.89036 226.385318,91.9423007 234.956136,91.9423007 C243.528513,91.9423007 250.478752,98.89036 250.478752,107.460049" id="Fill-95" fill="#3EC19C"></path>
                            <polygon id="Fill-96" fill="#FFFFFF" points="234.565887 107.459737 235.345761 107.459737 235.345761 98.8635407 234.565887 98.8635407"></polygon>
                            <polygon id="Fill-97" fill="#FFFFFF" points="234.565887 107.459737 240.984252 107.459737 240.984252 106.680107 234.565887 106.680107"></polygon>
                            <path d="M369.971703,102.34599 L264.995955,102.34599 C262.506596,102.34599 260.488282,100.328309 260.488282,97.8381719 C260.488282,95.3495941 262.506596,93.3319126 264.995955,93.3319126 L369.971703,93.3319126 C372.462621,93.3319126 374.480936,95.3495941 374.480936,97.8381719 C374.480936,100.328309 372.462621,102.34599 369.971703,102.34599" id="Fill-98" fill="#DADBDB"></path>
                            <path d="M322.574536,122.151234 L264.996423,122.151234 C262.505504,122.151234 260.48719,120.133552 260.48719,117.643415 C260.48719,115.154837 262.505504,113.137156 264.996423,113.137156 L322.574536,113.137156 C325.065454,113.137156 327.083769,115.154837 327.083769,117.643415 C327.083769,120.133552 325.065454,122.151234 322.574536,122.151234" id="Fill-99" fill="#DADBDB"></path>
                            <path d="M369.971703,141.956321 L223.943376,141.956321 C221.452458,141.956321 219.434143,139.93864 219.434143,137.448503 C219.434143,134.959925 221.452458,132.942243 223.943376,132.942243 L369.971703,132.942243 C372.462621,132.942243 374.480936,134.959925 374.480936,137.448503 C374.480936,139.93864 372.462621,141.956321 369.971703,141.956321" id="Fill-100" fill="#DADBDB"></path>
                        </g>
                    </g>
                </g>
            </g>
        </g>
    </g>
</svg>
